{"title":"Aussie Gold Hunters - S01E01","uid":15866907,"size":361572870,"categoryP":"video","categoryS":"tv_shows","magnet":"?xt=urn:btih:7300404f3852aafbb8d28d09a392e216de5a7055&amp;dn=Aussie+Gold+Hunters+-+S01E01&amp;tr=udp%3A%2F%2Ftracker.leechers-paradise.org%3A6969&amp;tr=udp%3A%2F%2Fzer0day.ch%3A1337&amp;tr=udp%3A%2F%2Fopen.demonii.com%3A1337&amp;tr=udp%3A%2F%2Ftracker.coppersurfer.tk%3A6969&amp;tr=udp%3A%2F%2Fexodus.desync.com%3A6969","seeders":26,"leechers":7,"uploader":"Bullrout","files":1,"time":1474377654,"description":"Aussie Gold Hunters - S01E01\r\n\r\nDeep in Western Australia's legendary Goldfields, three teams of hardcore gold prospectors are risking their dreams and futures, in pursuit of the ultimate golden reward.\r\n\r\nComplete name : Aussie Gold Hunters - S01E01.mp4\r\nFormat : MPEG-4\r\nFormat profile : Base Media / Version 2\r\nCodec ID : mp42 (mp42/isom/avc1)\r\nFile size : 345 MiB\r\nDuration : 43 min 30 s\r\nOverall bit rate mode : Variable\r\nOverall bit rate : 1 108 kb/s\r\n\r\n\r\nVideo\r\nID : 2\r\nFormat : AVC\r\nFormat/Info : Advanced Video Codec\r\nFormat profile :   \r\nFormat settings, CABAC : Yes\r\nFormat settings, ReFrames : 3 frames\r\nCodec ID : avc1\r\nCodec ID/Info : Advanced Video Coding\r\nDuration : 43 min 30 s\r\nBit rate mode : Variable\r\nBit rate : 976 kb/s\r\nMaximum bit rate : 1 000 kb/s\r\nWidth : 720 pixels\r\nHeight : 404 pixels\r\nDisplay aspect ratio : 16:9\r\nOriginal display aspect ratio : 16:9\r\nFrame rate mode : Constant\r\nFrame rate : 25.000 FPS\r\nStandard : PAL\r\nColor space : YUV\r\nChroma subsampling : 4:2:0\r\nBit depth : 8 bits\r\nScan type : Progressive\r\nBits/(Pixel*Frame) : 0.134\r\nStream size : 304 MiB (88%)\r\nWriting library : x264 core 112\r\nColor range : Limited\r\nColor primaries : BT.601 PAL\r\nTransfer characteristics : BT.470 System B, BT.470 System G\r\nMatrix coefficients : BT.601\r\n\r\nAudio\r\nID : 1\r\nFormat : AAC\r\nFormat/Info : Advanced Audio Codec\r\nFormat profile : LC\r\nCodec ID : 40\r\nDuration : 43 min 30 s\r\nBit rate mode : Variable\r\nBit rate : 128 kb/s\r\nMaximum bit rate : 576 kb/s\r\nChannel(s) : 2 channels\r\nChannel positions : Front: L R\r\nSampling rate : 48.0 kHz\r\nFrame rate : 46.875 FPS (1024 spf)\r\nCompression mode : Lossy\r\nStream size : 39.8 MiB (12%)","torrent":{"xt":"urn:btih:7300404f3852aafbb8d28d09a392e216de5a7055","amp;dn":"Aussie+Gold+Hunters+-+S01E01","amp;tr":["udp%3A%2F%2Ftracker.leechers-paradise.org%3A6969","udp%3A%2F%2Fzer0day.ch%3A1337","udp%3A%2F%2Fopen.demonii.com%3A1337","udp%3A%2F%2Ftracker.coppersurfer.tk%3A6969","udp%3A%2F%2Fexodus.desync.com%3A6969"],"infoHash":"7300404f3852aafbb8d28d09a392e216de5a7055","infoHashBuffer":{"type":"Buffer","data":[115,0,64,79,56,82,170,251,184,210,141,9,163,146,226,22,222,90,112,85]},"announce":[],"urlList":[]}}